<svg width="1200" height="630" viewBox="0 0 1200 630" fill="none" xmlns="http://www.w3.org/2000/svg">
  <defs>
    <linearGradient id="bg" x1="80" y1="40" x2="1080" y2="590" gradientUnits="userSpaceOnUse">
      <stop stop-color="#F3F8FF"/>
      <stop offset="0.5" stop-color="#E5F1FF"/>
      <stop offset="1" stop-color="#FAFCFF"/>
    </linearGradient>
    <linearGradient id="brand" x1="140" y1="132" x2="496" y2="390" gradientUnits="userSpaceOnUse">
      <stop stop-color="#1535C9"/>
      <stop offset="1" stop-color="#29B6F6"/>
    </linearGradient>
    <linearGradient id="cta" x1="0" y1="0" x2="1" y2="1">
      <stop stop-color="#1535C9"/>
      <stop offset="1" stop-color="#1976D2"/>
    </linearGradient>
    <linearGradient id="panel" x1="678" y1="163" x2="1086" y2="475" gradientUnits="userSpaceOnUse">
      <stop stop-color="#FFFFFF"/>
      <stop offset="1" stop-color="#F8FBFF"/>
    </linearGradient>
    <filter id="shadow" x="0" y="0" width="1200" height="630" filterUnits="userSpaceOnUse" color-interpolation-filters="sRGB">
      <feDropShadow dx="0" dy="22" stdDeviation="30" flood-color="#1535C9" flood-opacity="0.12"/>
    </filter>
  </defs>

  <rect width="1200" height="630" fill="url(#bg)"/>

  <g opacity="0.08" stroke="#1535C9">
    <line x1="-60" y1="110" x2="600" y2="630"/>
    <line x1="40" y1="40" x2="700" y2="560"/>
    <line x1="140" y1="-20" x2="800" y2="500"/>
    <line x1="240" y1="-80" x2="900" y2="440"/>
    <line x1="1200" y1="150" x2="520" y2="630"/>
    <line x1="1200" y1="40" x2="430" y2="580"/>
    <line x1="1140" y1="-20" x2="340" y2="540"/>
  </g>

  <polygon points="925,48 1070,168 925,288 780,168" fill="#1535C9" fill-opacity="0.06"/>
  <polygon points="980,118 1090,208 980,298 870,208" fill="#29B6F6" fill-opacity="0.08"/>
  <polygon points="110,420 220,500 110,580 0,500" fill="#29B6F6" fill-opacity="0.09"/>

  <g filter="url(#shadow)">
    <rect x="646" y="118" width="430" height="318" rx="28" fill="url(#panel)"/>
    <rect x="674" y="150" width="374" height="28" rx="14" fill="#EEF4FB"/>
    <circle cx="704" cy="164" r="6" fill="#F87171"/>
    <circle cx="726" cy="164" r="6" fill="#FBBF24"/>
    <circle cx="748" cy="164" r="6" fill="#34D399"/>

    <rect x="682" y="202" width="108" height="78" rx="18" fill="#FFFFFF"/>
    <rect x="806" y="202" width="108" height="78" rx="18" fill="#FFFFFF"/>
    <rect x="930" y="202" width="108" height="78" rx="18" fill="#FFFFFF"/>

    <text x="700" y="229" fill="#94A3B8" font-family="Arial, sans-serif" font-size="16">Orders</text>
    <text x="700" y="259" fill="#1535C9" font-family="Arial, sans-serif" font-size="28" font-weight="700">2,841</text>

    <text x="824" y="229" fill="#94A3B8" font-family="Arial, sans-serif" font-size="16">In Transit</text>
    <text x="824" y="259" fill="#1976D2" font-family="Arial, sans-serif" font-size="28" font-weight="700">384</text>

    <text x="948" y="229" fill="#94A3B8" font-family="Arial, sans-serif" font-size="16">Delivered</text>
    <text x="948" y="259" fill="#29B6F6" font-family="Arial, sans-serif" font-size="28" font-weight="700">98.4%</text>

    <rect x="682" y="300" width="356" height="60" rx="18" fill="#FFFFFF"/>
    <rect x="706" y="334" width="32" height="12" rx="6" fill="#C7DAFF"/>
    <rect x="744" y="320" width="32" height="26" rx="6" fill="#90CAF9"/>
    <rect x="782" y="326" width="32" height="20" rx="6" fill="#C7DAFF"/>
    <rect x="820" y="308" width="32" height="38" rx="6" fill="#29B6F6"/>
    <rect x="858" y="316" width="32" height="30" rx="6" fill="#90CAF9"/>
    <rect x="896" y="296" width="32" height="50" rx="6" fill="#1535C9"/>
    <rect x="934" y="312" width="32" height="34" rx="6" fill="#BBDEFB"/>
    <rect x="682" y="378" width="356" height="28" rx="14" fill="#FFFFFF"/>
    <rect x="706" y="389" width="204" height="8" rx="4" fill="#E5EDF7"/>
    <rect x="928" y="389" width="86" height="8" rx="4" fill="#D5E5FF"/>
  </g>

  <g>
    <g transform="translate(96 84)">
      <polygon points="32,0 64,18 64,50 32,68 0,50 0,18" fill="none"/>
      <polygon points="32,0 0,18 32,32" fill="#1976D2" fill-opacity="0.85"/>
      <polygon points="32,0 64,18 32,32" fill="#29B6F6" fill-opacity="0.9"/>
      <polygon points="64,18 64,50 32,32" fill="#1535C9" fill-opacity="0.8"/>
      <polygon points="0,18 0,50 32,32" fill="#00BCD4" fill-opacity="0.75"/>
      <polygon points="32,68 0,50 32,32" fill="#1976D2" fill-opacity="0.7"/>
      <polygon points="32,68 64,50 32,32" fill="#1535C9" fill-opacity="0.65"/>
    </g>
    <text x="178" y="138" fill="#1535C9" font-family="Arial, sans-serif" font-size="34" font-weight="700" letter-spacing="1.4">FLOWLOGIX</text>
  </g>

  <text x="96" y="214" fill="#1976D2" font-family="Arial, sans-serif" font-size="18" font-weight="700" letter-spacing="2">SUPPLY CHAIN INTELLIGENCE</text>
  <text x="96" y="296" fill="#111827" font-family="Arial, sans-serif" font-size="72" font-weight="700">Move Smarter.</text>
  <text x="96" y="378" fill="url(#brand)" font-family="Arial, sans-serif" font-size="72" font-weight="700">Ship Faster.</text>
  <text x="96" y="460" fill="#111827" font-family="Arial, sans-serif" font-size="72" font-weight="700">Scale Further.</text>
  <text x="96" y="522" fill="#6B7280" font-family="Arial, sans-serif" font-size="28">Real-time visibility across warehouses, orders, and deliveries</text>
  <text x="96" y="560" fill="#6B7280" font-family="Arial, sans-serif" font-size="28">in one clean dashboard.</text>
  <rect x="96" y="576" width="210" height="24" rx="12" fill="url(#cta)"/>
  <text x="126" y="593" fill="#FFFFFF" font-family="Arial, sans-serif" font-size="15" font-weight="700">VIEW LIVE DEMO</text>
</svg>
